<svg width="150" height="150" viewBox="0 0 100 100" fill="none" xmlns="http://www.w3.org/2000/svg">
  <defs>
    <linearGradient id="sparkleGradient" x1="50%" y1="0%" x2="50%" y2="100%">
      <stop offset="0%" stop-color="#A78BFA"/>
      <stop offset="100%" stop-color="#8B5CF6"/>
    </linearGradient>
  </defs>

  <path d="M15 85 C 10 85, 10 75, 15 75 L 15 25 C 10 25, 10 15, 15 15 L 85 15 C 90 15, 90 25, 85 25 L 85 75 C 90 75, 90 85, 85 85 Z" fill="#374151"/>

  <path d="M50 20 V 80 C 40 80, 30 80, 20 80 V 20 H 50 Z" fill="#E5E7EB"/>
  <path d="M28 35 H 42" stroke="#9CA3AF" stroke-width="2" stroke-linecap="round"/>
  <path d="M28 45 H 42" stroke="#9CA3AF" stroke-width="2" stroke-linecap="round"/>
  <path d="M28 55 H 42" stroke="#9CA3AF" stroke-width="2" stroke-linecap="round"/>
  <path d="M28 65 H 38" stroke="#9CA3AF" stroke-width="2" stroke-linecap="round"/>

  <path d="M50 20 V 80 C 60 80, 70 80, 80 80 V 20 H 50 Z" fill="#E5E7EB"/>

  <g transform="translate(65, 30) rotate(15)">
    <path d="M0 -12 L 5 0 L 0 12 L -5 0 Z" fill="url(#sparkleGradient)"/>
    <path d="M-12 0 L 0 5 L 12 0 L 0 -5 Z" fill="url(#sparkleGradient)"/>
  </g>
  
  <circle cx="82" cy="38" r="1.5" fill="#8B5CF6"/>
  <rect x="78" y="25" width="3" height="3" rx="1.5" fill="#A78BFA"/>
  <circle cx="85" cy="22" r="1" fill="#8B5CF6"/>
</svg>